<svg xmlns="http://www.w3.org/2000/svg" viewBox="0 0 1000 400" class="schedio-logo">
  <defs>
    <style>
      .cls-1{fill:#003da6;}
      .cls-2{fill:#231f20;}
      .logo-text { 
        transition: all 0.4s cubic-bezier(0.23, 1, 0.32, 1);
      }
      .schedio-logo:hover .logo-text {
        filter: drop-shadow(0 0 12px rgba(0, 61, 166, 0.6));
      }
      .schedio-logo.scrolled .logo-text {
        filter: drop-shadow(0 0 8px rgba(0, 61, 166, 0.8));
      }
    </style>
    <linearGradient id="logoGradient" x1="0%" y1="0%" x2="100%" y2="100%">
      <stop offset="0%" stop-color="#003da6"/>
      <stop offset="50%" stop-color="#1e4a9c"/>
      <stop offset="100%" stop-color="#2a5eb8"/>
    </linearGradient>
  </defs>
  <title>Schedio Group</title>
  <g id="TW-1">
    <path class="cls-1" d="M22.24,247.16V227.34l67.63-87.61-65.95-78V41.58H160.46V63.1H65.4l-13.49-.28,64.68,76.63L49,225.79H168.76v21.37Z"/>
    <path class="cls-1" d="M340.16,247.16H313l-55.26-90.42-56.25,90.42H176.21l68.34-107.43-63.7-98.15h26.43l51,81.42,51.46-81.42h25.45l-63.69,97.31Z"/>
    <path class="cls-1" d="M484.16,247.16H369.55V41.58H484.16V62.82h-90.7V129h85.21v21.1H393.46v75.65h90.7Z"/>
    <path class="cls-1" d="M510.09,235.93,595.92,44.12a4.88,4.88,0,0,1,4-2.59h1.44a4.64,4.64,0,0,1,4,2.59L691,236.5c2,4.32,2.88,10.66-5.18,10.66H515.28C507.79,247.16,506.92,242.27,510.09,235.93Zm153.22-9.22L600.81,82.14h-.57L536.87,226.71Z"/>
    <path class="cls-1" d="M727.27,247.16V41.58h23.91V247.16Z"/>
    <path class="cls-1" d="M986,144.09q0,49.35-25,77.62T891.65,250q-45.4,0-70.09-27.77t-24.68-78.39q0-50.2,24.75-77.83t70.3-27.63q44.3,0,69.19,28.12T986,144.09Zm-163.81,0q0,41.76,17.78,63.35T891.65,229q34.17,0,51.6-21.51t17.44-63.42q0-41.48-17.36-62.93t-51.4-21.44q-34.17,0-52,21.59T822.19,144.09Z"/>
    
    <!-- Animated elements -->
    <g class="logo-text">
      <path class="cls-2" d="M14.36,353.51c.66-.95,1.25-2.05,1.91-3a1.65,1.65,0,0,1,2.49-.59c.44.37,6.09,5.06,11.73,5.06,5.06,0,8.29-3.08,8.29-6.82,0-4.4-3.81-7.19-11.08-10.19-7.48-3.15-13.34-7-13.34-15.55,0-5.72,4.4-13.56,16.06-13.56A25,25,0,0,1,44,313.18a1.75,1.75,0,0,1,.44,2.49c-.59.89-1.25,1.91-1.84,2.79a1.74,1.74,0,0,1-2.57.74c-.51-.3-5.64-3.67-9.9-3.67-6.16,0-8.28,3.88-8.28,6.6,0,4.18,3.23,6.74,9.31,9.24,8.51,3.45,15.77,7.48,15.77,16.42,0,7.63-6.82,13.86-16.36,13.86a23.74,23.74,0,0,1-15.76-5.79C14.14,355.27,13.62,354.76,14.36,353.51Z"/>
      <!-- Rest of the text paths would go here but keeping it reasonable -->
    </g>
  </g>
</svg>