<svg xmlns="http://www.w3.org/2000/svg" viewBox="0 0 1000 400"><defs><style>.cls-1{fill:#003da6;}.cls-2{fill:#231f20;}</style></defs><title>Transparent [LGT] - Main</title><g id="TW-1"><path class="cls-1" d="M22.24,247.16V227.34l67.63-87.61-65.95-78V41.58H160.46V63.1H65.4l-13.49-.28,64.68,76.63L49,225.79H168.76v21.37Z"/><path class="cls-1" d="M340.16,247.16H313l-55.26-90.42-56.25,90.42H176.21l68.34-107.43-63.7-98.15h26.43l51,81.42,51.46-81.42h25.45l-63.69,97.31Z"/><path class="cls-1" d="M484.16,247.16H369.55V41.58H484.16V62.82h-90.7V129h85.21v21.1H393.46v75.65h90.7Z"/><path class="cls-1" d="M510.09,235.93,595.92,44.12a4.88,4.88,0,0,1,4-2.59h1.44a4.64,4.64,0,0,1,4,2.59L691,236.5c2,4.32,2.88,10.66-5.18,10.66H515.28C507.79,247.16,506.92,242.27,510.09,235.93Zm153.22-9.22L600.81,82.14h-.57L536.87,226.71Z"/><path class="cls-1" d="M727.27,247.16V41.58h23.91V247.16Z"/><path class="cls-1" d="M986,144.09q0,49.35-25,77.62T891.65,250q-45.4,0-70.09-27.77t-24.68-78.39q0-50.2,24.75-77.83t70.3-27.63q44.3,0,69.19,28.12T986,144.09Zm-163.81,0q0,41.76,17.78,63.35T891.65,229q34.17,0,51.6-21.51t17.44-63.42q0-41.48-17.36-62.93t-51.4-21.44q-34.17,0-52,21.59T822.19,144.09Z"/><path class="cls-2" d="M14.36,353.51c.66-.95,1.25-2.05,1.91-3a1.65,1.65,0,0,1,2.49-.59c.44.37,6.09,5.06,11.73,5.06,5.06,0,8.29-3.08,8.29-6.82,0-4.4-3.81-7.19-11.08-10.19-7.48-3.15-13.34-7-13.34-15.55,0-5.72,4.4-13.56,16.06-13.56A25,25,0,0,1,44,313.18a1.75,1.75,0,0,1,.44,2.49c-.59.89-1.25,1.91-1.84,2.79a1.74,1.74,0,0,1-2.57.74c-.51-.3-5.64-3.67-9.9-3.67-6.16,0-8.28,3.88-8.28,6.6,0,4.18,3.23,6.74,9.31,9.24,8.51,3.45,15.77,7.48,15.77,16.42,0,7.63-6.82,13.86-16.36,13.86a23.74,23.74,0,0,1-15.76-5.79C14.14,355.27,13.62,354.76,14.36,353.51Z"/><path class="cls-2" d="M110.18,308.86a25.49,25.49,0,0,1,17.75,6.81,1.37,1.37,0,0,1,.07,2.06l-3.22,3.3c-.52.66-1.17.66-1.84,0a19.82,19.82,0,0,0-12.68-4.92c-10.49,0-18.41,8.81-18.41,19.07s8,19,18.48,19c5.36,0,9.1-2.12,12.61-4.84a1.34,1.34,0,0,1,1.76-.07l3.38,3.3a1.4,1.4,0,0,1-.08,2,25.15,25.15,0,0,1-17.82,7.11,26.4,26.4,0,1,1,0-52.79Z"/><path class="cls-2" d="M168.9,311a1.44,1.44,0,0,1,1.4-1.39h4.84a1.39,1.39,0,0,1,1.39,1.39v20.46h26.84V311a1.39,1.39,0,0,1,1.39-1.39h4.84A1.43,1.43,0,0,1,211,311v48.55a1.43,1.43,0,0,1-1.39,1.39h-4.84a1.39,1.39,0,0,1-1.39-1.39v-21.2H176.53v21.2a1.39,1.39,0,0,1-1.39,1.39H170.3a1.44,1.44,0,0,1-1.4-1.39Z"/><path class="cls-2" d="M255.63,311a1.4,1.4,0,0,1,1.4-1.39h29.33a1.39,1.39,0,0,1,1.39,1.39v4.11a1.39,1.39,0,0,1-1.39,1.39H263.19v15h19.57a1.44,1.44,0,0,1,1.4,1.39v4.11a1.39,1.39,0,0,1-1.4,1.39H263.19V354.1h23.17a1.39,1.39,0,0,1,1.39,1.39v4a1.39,1.39,0,0,1-1.39,1.39H257a1.4,1.4,0,0,1-1.4-1.39Z"/><path class="cls-2" d="M329.24,311a1.38,1.38,0,0,1,1.32-1.39h16.87a25.67,25.67,0,1,1,0,51.33H330.56a1.38,1.38,0,0,1-1.32-1.39Zm17.16,43C357.18,354,365,346,365,335.18s-7.85-18.62-18.63-18.62h-9.68V354Z"/><path class="cls-2" d="M414.14,311a1.44,1.44,0,0,1,1.39-1.39h4.84a1.44,1.44,0,0,1,1.39,1.39v48.55a1.44,1.44,0,0,1-1.39,1.39h-4.84a1.44,1.44,0,0,1-1.39-1.39Z"/><path class="cls-2" d="M489,308.86a26.4,26.4,0,1,1-26.32,26.47A26.35,26.35,0,0,1,489,308.86Zm0,45.46a19.07,19.07,0,1,0-19-19A19.06,19.06,0,0,0,489,354.32Z"/><path class="cls-2" d="M625.5,308.86a26.68,26.68,0,0,1,17.82,6.81,1.42,1.42,0,0,1,.07,2.06c-1.09,1.17-2.2,2.27-3.3,3.45-.58.65-1.17.58-1.9-.08a19.52,19.52,0,0,0-12.47-5c-10.41,0-18.4,8.81-18.4,19.07s8,19,18.4,19a25.91,25.91,0,0,0,11-2.49v-8.21h-7.19a1.34,1.34,0,0,1-1.39-1.32v-4.26a1.35,1.35,0,0,1,1.39-1.39h13.35a1.38,1.38,0,0,1,1.32,1.39c0,5.87.08,11.88.08,17.75a1.84,1.84,0,0,1-.59,1.17,36.68,36.68,0,0,1-18.19,4.84,26.4,26.4,0,1,1,0-52.79Z"/><path class="cls-2" d="M686.2,311a1.39,1.39,0,0,1,1.39-1.39h19.94a15.82,15.82,0,0,1,16,15.69c0,6.75-4.47,12.32-10.85,14.89l10,18.62a1.39,1.39,0,0,1-1.24,2.13h-5.72a1.34,1.34,0,0,1-1.17-.66l-9.76-19.43H693.75v18.7a1.44,1.44,0,0,1-1.39,1.39h-4.77a1.39,1.39,0,0,1-1.39-1.39ZM707,334.52a9.11,9.11,0,0,0,8.95-9.09A9,9,0,0,0,707,316.7H693.9v17.82Z"/><path class="cls-2" d="M788,308.86a26.4,26.4,0,1,1-26.33,26.47A26.35,26.35,0,0,1,788,308.86Zm0,45.46a19.07,19.07,0,1,0-19-19A19.06,19.06,0,0,0,788,354.32Z"/><path class="cls-2" d="M854.6,311a1.44,1.44,0,0,1,1.4-1.39h4.91A1.39,1.39,0,0,1,862.3,311v30.29c0,7.33,4.7,13.05,12.17,13.05s12.32-5.65,12.32-12.9V311a1.39,1.39,0,0,1,1.39-1.39h4.92a1.45,1.45,0,0,1,1.4,1.39v30.8c0,11.15-8.44,19.87-20,19.87a19.43,19.43,0,0,1-19.87-19.87Z"/><path class="cls-2" d="M938.47,311a1.4,1.4,0,0,1,1.4-1.39h16.72a16.35,16.35,0,1,1,.07,32.7H946v17.24a1.43,1.43,0,0,1-1.39,1.39h-4.76a1.4,1.4,0,0,1-1.4-1.39Zm17.68,24.13a9.35,9.35,0,0,0,9.31-9.39,9,9,0,0,0-9.31-8.8H946v18.19Z"/></g></svg>